<?xml version="1.0" encoding="iso-8859-1"?>
<!-- Uploaded to: SVG Repo, www.svgrepo.com, Generator: SVG Repo Mixer Tools -->
<svg fill="#000000" height="800px" width="800px" version="1.1" id="Layer_1" xmlns="http://www.w3.org/2000/svg" xmlns:xlink="http://www.w3.org/1999/xlink" 
	 viewBox="0 0 512 512" xml:space="preserve">
<g>
	<g>
		<path d="M360.736,214.422c63.062-65.555,63.807-121.383,63.807-123.779c0-41.936-12.097-69.782-35.957-82.762
			C344.448-16.132,275.344,21.315,256,32.833c-19.344-11.517-88.441-48.962-132.586-24.952
			c-23.859,12.98-35.957,40.826-35.957,82.762c0,2.397,0.745,58.225,63.807,123.779c-8.591,20.084-35.57,85.803-35.717,119.396
			c-0.215,3.921-2.124,42.263,3.605,82.359c8.426,58.979,28.82,91.187,60.616,95.729c0.441,0.063,0.885,0.094,1.324,0.094
			c2.24,0,4.421-0.804,6.136-2.289c2.051-1.779,3.228-4.359,3.228-7.074c0-0.458,0.105-46.415,9.181-91.798
			c7.857-39.283,24.012-86.108,56.364-86.108c53.721,0,65.529,128.425,65.544,177.908c0,2.714,1.18,5.296,3.23,7.073
			c1.712,1.486,3.895,2.289,6.133,2.289c0.441,0,0.883-0.031,1.324-0.094c31.796-4.542,52.19-36.75,60.616-95.729
			c5.729-40.097,3.82-78.439,3.605-82.359C396.306,300.225,369.327,234.506,360.736,214.422z M339.986,489.87
			c-0.636-17.317-2.679-49.805-9.261-82.706C317.302,340.038,292.16,306.003,256,306.003c-36.16,0-61.302,34.035-74.725,101.162
			c-6.582,32.9-8.625,65.389-9.261,82.706c-36.896-20.357-40.005-116.693-37.756-155.229c0.011-0.182,0.016-0.366,0.016-0.548
			c0-35.037,36.281-117.099,36.647-117.923c1.573-3.541,0.805-7.684-1.936-10.424c-32.226-32.226-47.583-61.839-54.794-81.007
			c-7.791-20.706-8.006-34.01-8.008-34.097c0-34.541,8.804-56.847,26.164-66.302c33.924-18.478,97.091,13.478,118.569,27.349
			c0.183,0.118,0.379,0.186,0.567,0.29c0.327,0.179,0.647,0.366,0.99,0.505c0.272,0.111,0.549,0.178,0.828,0.262
			c0.302,0.092,0.597,0.193,0.908,0.254c0.29,0.056,0.583,0.073,0.875,0.102c0.311,0.031,0.617,0.071,0.931,0.071
			c0.277-0.001,0.546-0.038,0.821-0.063c0.329-0.03,0.658-0.05,0.985-0.115c0.27-0.054,0.53-0.145,0.793-0.222
			c0.316-0.093,0.629-0.172,0.935-0.297c0.311-0.127,0.599-0.298,0.896-0.46c0.213-0.115,0.437-0.195,0.642-0.329
			c21.447-13.878,84.559-45.852,118.55-27.356c17.371,9.451,26.179,31.761,26.179,66.312c0,0.523-0.718,53.021-62.801,115.104
			c-2.741,2.74-3.509,6.884-1.936,10.424c0.366,0.824,36.647,82.861,36.647,117.923c0,0.182,0.005,0.366,0.016,0.548
			C379.991,373.178,376.882,469.513,339.986,489.87z"/>
	</g>
</g>
</svg>